solid OpenSCAD_Model
  facet normal 0 -0.403964 -0.914775
    outer loop
      vertex 0 0.284171 -0.12549
      vertex -1.43355 3 -1.3248
      vertex 1.43355 3 -1.3248
    endloop
  endfacet
  facet normal 0 -0.403964 0.914775
    outer loop
      vertex 1.43355 3 1.3248
      vertex -1.43355 3 1.3248
      vertex 0 0.284171 0.12549
    endloop
  endfacet
  facet normal 0 1 -0
    outer loop
      vertex 1.43355 3 -1.3248
      vertex -1.43355 3 1.3248
      vertex 1.43355 3 1.3248
    endloop
  endfacet
  facet normal 0 1 0
    outer loop
      vertex -1.43355 3 1.3248
      vertex 1.43355 3 -1.3248
      vertex -1.43355 3 -1.3248
    endloop
  endfacet
  facet normal -0.884358 -0.466808 0
    outer loop
      vertex 0 0.284171 -0.12549
      vertex -1.43355 3 1.3248
      vertex -1.43355 3 -1.3248
    endloop
  endfacet
  facet normal -0.884358 -0.466808 0
    outer loop
      vertex -1.43355 3 1.3248
      vertex 0 0.284171 -0.12549
      vertex 0 0.284171 0.12549
    endloop
  endfacet
  facet normal 0.884358 -0.466808 0
    outer loop
      vertex 0 0.284171 0.12549
      vertex 1.43355 3 -1.3248
      vertex 1.43355 3 1.3248
    endloop
  endfacet
  facet normal 0.884358 -0.466808 0
    outer loop
      vertex 1.43355 3 -1.3248
      vertex 0 0.284171 0.12549
      vertex 0 0.284171 -0.12549
    endloop
  endfacet
endsolid OpenSCAD_Model
